<svg width="22" height="22" viewBox="0 0 22 22" fill="none" xmlns="http://www.w3.org/2000/svg">
<path d="M10.7812 0C4.84076 0 0 4.84076 0 10.7812C0 16.7216 4.84076 21.5624 10.7812 21.5624C16.7216 21.5624 21.5624 16.7216 21.5624 10.7812C21.5624 4.84076 16.7216 0 10.7812 0ZM14.4037 13.2609C14.7163 13.5735 14.7163 14.091 14.4037 14.4037C14.242 14.5654 14.0371 14.6409 13.8323 14.6409C13.6274 14.6409 13.4226 14.5654 13.2609 14.4037L10.7812 11.924L8.30153 14.4037C8.13981 14.5654 7.93497 14.6409 7.73012 14.6409C7.52528 14.6409 7.32044 14.5654 7.15872 14.4037C6.84607 14.091 6.84607 13.5735 7.15872 13.2609L9.6384 10.7812L7.15872 8.30153C6.84607 7.98887 6.84607 7.47137 7.15872 7.15872C7.47137 6.84607 7.98887 6.84607 8.30153 7.15872L10.7812 9.6384L13.2609 7.15872C13.5735 6.84607 14.091 6.84607 14.4037 7.15872C14.7163 7.47137 14.7163 7.98887 14.4037 8.30153L11.924 10.7812L14.4037 13.2609Z" fill="black"/>
</svg>
