<svg width="64" height="62" viewBox="0 0 64 62" fill="none" xmlns="http://www.w3.org/2000/svg">
<path d="M3 59.4629H61" stroke="#830C3A" stroke-width="5" stroke-miterlimit="10" stroke-linecap="round" stroke-linejoin="round"/>
<path d="M5.75488 59.4629L5.89988 24.5759C5.89988 22.8069 6.74088 21.125 8.13288 20.023L28.433 4.218C30.521 2.594 33.4497 2.594 35.5667 4.218L55.867 19.994C57.288 21.096 58.1 22.7779 58.1 24.5759V59.4629" stroke="#830C3A" stroke-width="5" stroke-miterlimit="10" stroke-linejoin="round"/>
<path d="M34.9 44.963H29.1C26.693 44.963 24.75 46.906 24.75 49.313V59.463H39.25V49.313C39.25 46.906 37.307 44.963 34.9 44.963Z" stroke="#830C3A" stroke-width="5" stroke-miterlimit="10" stroke-linejoin="round"/>
<path d="M24.75 35.5379H18.95C17.355 35.5379 16.05 34.2329 16.05 32.6379V28.2879C16.05 26.6929 17.355 25.3879 18.95 25.3879H24.75C26.345 25.3879 27.65 26.6929 27.65 28.2879V32.6379C27.65 34.2329 26.345 35.5379 24.75 35.5379Z" stroke="#830C3A" stroke-width="5" stroke-miterlimit="10" stroke-linejoin="round"/>
<path d="M45.05 35.5379H39.25C37.655 35.5379 36.35 34.2329 36.35 32.6379V28.2879C36.35 26.6929 37.655 25.3879 39.25 25.3879H45.05C46.645 25.3879 47.95 26.6929 47.95 28.2879V32.6379C47.95 34.2329 46.645 35.5379 45.05 35.5379Z" stroke="#830C3A" stroke-width="5" stroke-miterlimit="10" stroke-linejoin="round"/>
<path d="M52.3002 15.9629L52.2132 7.26294H39.4532" stroke="#830C3A" stroke-width="5" stroke-miterlimit="10" stroke-linecap="round" stroke-linejoin="round"/>
</svg>
