<svg width="44" height="45" viewBox="0 0 44 45" fill="none" xmlns="http://www.w3.org/2000/svg">
<path d="M23.869 9.14775H7.53098C3.93998 9.14775 1 12.0877 1 15.6787V39.5348C1 42.5798 3.184 43.8818 5.851 42.3908L14.104 37.7918C14.986 37.3088 16.414 37.3088 17.275 37.7918L25.528 42.3908C28.195 43.8818 30.379 42.5798 30.379 39.5348V15.6787C30.4 12.0877 27.46 9.14775 23.869 9.14775Z" fill="#FBC403" stroke="#830C3A" stroke-width="2" stroke-linecap="round" stroke-linejoin="round"/>
<path d="M30.4 15.6787V39.5348C30.4 42.5798 28.216 43.8608 25.549 42.3908L17.296 37.7918C16.414 37.3088 14.986 37.3088 14.104 37.7918L5.851 42.3908C3.184 43.8608 1 42.5798 1 39.5348V15.6787C1 12.0877 3.93998 9.14775 7.53098 9.14775H23.869C27.46 9.14775 30.4 12.0877 30.4 15.6787Z" fill="#FBC403" stroke="#830C3A" stroke-width="2" stroke-linecap="round" stroke-linejoin="round"/>
<path d="M43.0001 7.53098V31.387C43.0001 34.432 40.8161 35.713 38.1491 34.243L30.4001 29.917V15.679C30.4001 12.088 27.4601 9.148 23.8691 9.148H13.6001V7.53098C13.6001 3.93998 16.5401 1 20.1311 1H36.4691C40.0601 1 43.0001 3.93998 43.0001 7.53098Z" fill="#FBC403" stroke="#830C3A" stroke-width="2" stroke-linecap="round" stroke-linejoin="round"/>
</svg>
