<svg width="27" height="27" viewBox="0 0 27 27" fill="none" xmlns="http://www.w3.org/2000/svg">
<path d="M13.4933 14.308C13.4068 14.2957 13.2957 14.2957 13.197 14.308C11.0242 14.2339 9.2959 12.4562 9.2959 10.2711C9.2959 8.03668 11.0983 6.22195 13.3451 6.22195C15.5796 6.22195 17.3943 8.03668 17.3943 10.2711C17.382 12.4562 15.666 14.2339 13.4933 14.308Z" stroke="black" stroke-width="2" stroke-linecap="round" stroke-linejoin="round"/>
<path d="M21.6656 22.4559C19.4681 24.4681 16.5547 25.6903 13.345 25.6903C10.1353 25.6903 7.22184 24.4681 5.02441 22.4559C5.14786 21.2955 5.88857 20.1597 7.20949 19.2709C10.592 17.0241 16.1226 17.0241 19.4805 19.2709C20.8014 20.1597 21.5421 21.2955 21.6656 22.4559Z" stroke="black" stroke-width="2" stroke-linecap="round" stroke-linejoin="round"/>
<path d="M13.3451 25.6902C20.163 25.6902 25.6902 20.163 25.6902 13.3451C25.6902 6.52708 20.163 1 13.3451 1C6.52708 1 1 6.52708 1 13.3451C1 20.163 6.52708 25.6902 13.3451 25.6902Z" stroke="black" stroke-width="2" stroke-linecap="round" stroke-linejoin="round"/>
</svg>
